<svg width="1440" height="1024" viewBox="0 0 1440 1024" fill="none" xmlns="http://www.w3.org/2000/svg">
<path d="M-250 821C-99.0001 634 605 305.766 1481 160C1510.5 125.5 1559.5 115 1590 160C1322 230.834 207 604 -125 1029.5C-186.459 1108.27 -304.699 1075.62 -373.107 1073.09C-416.107 1204.23 -425.5 1283.64 -425.5 1102.5C-425.5 1077.14 -404.576 1071.93 -373.107 1073.09C-346.661 992.434 -307.503 892.212 -250 821Z" fill="#DC4955" fill-opacity="0.65"/>
<path d="M-219 -103C-192.6 -81 486.333 -111.333 531.5 -103C1094.5 -140.667 2298.66 -27.0536 1490 119C593.937 280.839 -2.8616 425.055 -158.846 611.065C-106.078 705.392 -153.394 855.27 -188.5 766C-210.201 710.818 -199.482 659.524 -158.846 611.065C-186.318 561.955 -240.921 527.903 -338.5 550.5C-623.5 616.5 -252 -130.5 -219 -103Z" fill="#DE5791" fill-opacity="0.65"/>
</svg>
