<svg width="1440" height="1024" viewBox="0 0 1440 1024" fill="none" xmlns="http://www.w3.org/2000/svg">
<path d="M-692.77 775.522C-660.754 788.008 -409.977 686.429 -364.5 680C157.455 465.637 1458.5 -92.9999 2005 -245.5C1553.6 239.103 490.5 355.969 -299.5 1137C-403.231 1239.55 -68.5343 2170.01 -317.864 2323.03C-567.195 2476.05 -732.791 759.914 -692.77 775.522Z" fill="#F8DCDE" fill-opacity="0.6"/>
<path d="M-43 -18.2906C-16.6 3.70943 651 -95.0182 651 -18.2906C1214 -55.9572 2576.04 60.311 1754.5 78.6031C582 104.709 -43.5 313.209 -104.5 445.709C-165.5 578.209 -148.969 429.709 -104.5 218.209C-60.0308 6.70935 -76 -45.7906 -43 -18.2906Z" fill="#DE5791" fill-opacity="0.65"/>
</svg>
