<svg width="318" height="60" viewBox="0 0 318 60" fill="none" xmlns="http://www.w3.org/2000/svg">
<path d="M312.832 0H5.73964C3.08202 0 0.893335 2.07651 0.831056 4.7334C0.78143 6.85051 0.753158 9.46652 0.806764 12.1282C0.859755 14.7592 3.0818 16.733 5.6202 17.427C11.3678 18.9986 16.2464 23.4202 16.5 29.5082C16.5 35.1096 13.3734 40.886 5.96201 42.6538C3.27594 43.2945 1 45.4386 1 48.2V49.44V50.3439V52.32V55C1 57.7614 3.23858 60 6 60H312.985C315.752 60 317.993 57.7521 317.985 54.9847L317.832 4.98474C317.824 2.22929 315.588 0 312.832 0Z" fill="#C3C386"/>
</svg>
