<svg width="375" height="812" viewBox="0 0 375 812" fill="none" xmlns="http://www.w3.org/2000/svg">
<path d="M-575.491 148.334C-549.091 170.334 -321.167 173.667 -276 182C287 144.333 1072 -182 1263 -182C995 -111.166 375.5 55.5 -621.5 545.5C-752.411 609.839 -425.991 1668.83 -710.991 1734.83C-995.991 1800.83 -608.491 120.834 -575.491 148.334Z" fill="#F8DCDE"/>
<path d="M-692.77 775.522C-660.754 788.008 -409.977 686.429 -364.5 680C157.454 465.637 367.5 415.5 945.898 -121.103C494.5 363.5 490.499 355.969 -299.5 1137C-403.231 1239.55 -68.5343 2170.01 -317.864 2323.03C-567.195 2476.05 -732.791 759.914 -692.77 775.522Z" fill="#F8DCDE" fill-opacity="0.6"/>
<path d="M-610.491 -117.272C-584.091 -95.2722 -487.158 -73.1057 -441.991 -64.7723C121.009 -102.439 1545.1 -272.206 755.5 -44.6063C-231.5 239.894 -468 43.8937 -529 176.394C-590 308.894 -460.991 1403.23 -745.991 1469.23C-1030.99 1535.23 -643.491 -144.772 -610.491 -117.272Z" fill="#DE5791" fill-opacity="0.65"/>
</svg>
