<svg width="375" height="812" viewBox="0 0 375 812" fill="none" xmlns="http://www.w3.org/2000/svg">
<path d="M-575.491 148.334C-549.091 170.334 -452.158 192.501 -406.991 200.834C156.009 163.167 428 130 619 130C351 200.834 -406.991 375.999 -348.991 1237.33C-339.191 1382.87 -425.991 1668.83 -710.991 1734.83C-995.991 1800.83 -608.491 120.834 -575.491 148.334Z" fill="#DC4955" fill-opacity="0.65"/>
<path d="M-518.491 67.3339C-492.091 89.3339 -395.158 111.501 -349.991 119.834C213.009 82.1673 485 49 676 49C408 119.834 -349.991 294.999 -291.991 1156.33C-282.191 1301.87 -368.991 1587.83 -653.991 1653.83C-938.991 1719.83 -551.491 39.8339 -518.491 67.3339Z" fill="#F9F8F9"/>
<path d="M-623.491 -71.666C-597.091 -49.666 -500.158 -27.4993 -454.991 -19.166C108.009 -56.8327 1263.6 -126.1 474 101.5C-513 386 -335.991 884.834 -396.991 1017.33C-457.991 1149.83 -473.991 1448.83 -758.991 1514.83C-1043.99 1580.83 -656.491 -99.166 -623.491 -71.666Z" fill="#DE5791" fill-opacity="0.65"/>
</svg>
