<svg width="326" height="68" viewBox="0 0 326 68" fill="none" xmlns="http://www.w3.org/2000/svg">
<g filter="url(#filter0_d_36:65)">
<path d="M316.832 0H9.73964C7.08202 0 4.89334 2.07651 4.83106 4.7334C4.78144 6.85051 4.75317 9.46652 4.80677 12.1282C4.85976 14.7592 7.08181 16.733 9.62021 17.427C15.3678 18.9986 20.2464 23.4202 20.5 29.5082C20.5 35.1096 17.3734 40.886 9.96201 42.6538C7.27595 43.2945 5.00001 45.4386 5.00001 48.2V49.44V50.3439V52.32V55C5.00001 57.7614 7.23859 60 10 60H316.985C319.752 60 321.993 57.7521 321.985 54.9847L321.832 4.98474C321.824 2.22929 319.588 0 316.832 0Z" fill="#C3C386"/>
</g>
<defs>
<filter id="filter0_d_36:65" x="0.777802" y="0" width="325.207" height="68" filterUnits="userSpaceOnUse" color-interpolation-filters="sRGB">
<feFlood flood-opacity="0" result="BackgroundImageFix"/>
<feColorMatrix in="SourceAlpha" type="matrix" values="0 0 0 0 0 0 0 0 0 0 0 0 0 0 0 0 0 0 127 0" result="hardAlpha"/>
<feOffset dy="4"/>
<feGaussianBlur stdDeviation="2"/>
<feComposite in2="hardAlpha" operator="out"/>
<feColorMatrix type="matrix" values="0 0 0 0 0 0 0 0 0 0 0 0 0 0 0 0 0 0 0.25 0"/>
<feBlend mode="normal" in2="BackgroundImageFix" result="effect1_dropShadow_36:65"/>
<feBlend mode="normal" in="SourceGraphic" in2="effect1_dropShadow_36:65" result="shape"/>
</filter>
</defs>
</svg>
